<svg xmlns="http://www.w3.org/2000/svg" fill="none" width="54" height="14" viewBox="0 0 10688 3035">
  <path fill="#000" fill-rule="evenodd" d="M2726.46 1485.34c0-753.12-411.14-1333.34-1456.3-1333.34H152v2666.68h1118.16c1045.16 0 1456.3-580.21 1456.3-1333.34Zm-760.81 0c0 526.42-295.87 722.39-707.01 722.39H878.23V762.95h380.41c411.14 0 707.01 195.97 707.01 722.39ZM2900.38 2818.68h2113.36v-607.11H3626.61v-457.25h1218.06v-576.38H3626.61V759.11h1352.55V152H2900.38v2666.68ZM7473.88 1078.04c0-672.44-430.36-926.04-1098.95-926.04H5218.34v2666.68h726.23v-814.6h430.36c668.59 0 1098.95-253.61 1098.95-926.04Zm-753.12 0c0 261.29-122.96 368.88-418.84 368.88h-357.35V709.16h357.35c295.88 0 418.84 107.59 418.84 368.88ZM7553.13 774.48h841.5v2044.2h726.23V774.48h841.5V152H7553.13v622.48ZM9660.6 2445.33c0 241.32 195.35 436.67 436.7 436.67 241.3 0 438.6-195.35 438.6-436.67 0-241.32-197.3-438.59-438.6-438.59-241.35 0-436.7 197.27-436.7 438.59Zm84.27 0c0-199.18 157.04-361.98 352.43-361.98 195.3 0 354.3 162.8 354.3 361.98s-159 360.06-354.3 360.06c-195.39 0-352.43-160.88-352.43-360.06Zm147.47 216.42h137.86v-149.39h78.6l82.3 149.39h149.4l-99.6-176.2c46-19.15 80.4-70.86 80.4-128.32 0-101.51-65.1-149.39-176.2-149.39h-252.76v453.91Zm289.16-302.61c0 36.39-22.9 51.72-67 51.72h-84.3v-95.77h84.3c44.1 0 67 11.5 67 44.05Z"/>
</svg>
